<?xml version="1.0" standalone="no"?>
<!DOCTYPE svg PUBLIC "-//W3C//DTD SVG 20010904//EN"
 "http://www.w3.org/TR/2001/REC-SVG-20010904/DTD/svg10.dtd">
<svg version="1.0" xmlns="http://www.w3.org/2000/svg"
 width="4659.000000pt" height="1368.000000pt" viewBox="0 0 4659.000000 1368.000000"
 preserveAspectRatio="xMidYMid meet">

<g transform="translate(0.000000,1368.000000) scale(0.100000,-0.100000)"
fill="#000000" stroke="none">
<path d="M39439 5488 l0 -563 -22 30 c-118 159 -241 222 -457 232 -263 12
-489 -83 -651 -273 -100 -118 -171 -263 -210 -433 -27 -114 -37 -395 -19 -524
41 -306 185 -536 408 -655 177 -94 462 -107 647 -29 100 42 209 131 282 232
l22 30 1 -132 0 -133 290 0 290 0 0 1390 0 1390 -290 0 -290 0 -1 -562z m-202
-779 c79 -40 150 -120 185 -209 19 -48 23 -78 26 -235 4 -205 -7 -275 -60
-383 -67 -135 -178 -212 -319 -220 -180 -10 -319 85 -379 261 -49 146 -49 382
1 529 70 206 196 301 391 295 76 -3 96 -7 155 -38z"/>
<path d="M41590 4660 l0 -1390 285 0 285 0 0 465 c0 256 3 465 8 465 4 0 142
-209 306 -465 l299 -465 344 0 c252 0 342 3 337 11 -4 6 -164 228 -355 493
-192 264 -347 487 -344 493 2 7 148 201 323 430 175 230 322 424 326 431 6 9
-63 12 -332 12 l-339 0 -277 -430 c-153 -236 -282 -430 -287 -430 -5 0 -9 355
-9 885 l0 885 -285 0 -285 0 0 -1390z"/>
<path d="M40693 6025 c-141 -43 -215 -139 -215 -276 0 -176 137 -298 333 -299
209 0 357 163 319 353 -21 110 -89 183 -199 217 -73 23 -175 25 -238 5z"/>
<path d="M43873 6026 c-142 -46 -214 -140 -214 -278 -1 -181 152 -309 355
-296 128 8 225 67 273 166 38 78 39 184 3 255 -29 59 -86 112 -149 140 -58 26
-206 33 -268 13z"/>
<path d="M19665 5929 c-497 -64 -795 -350 -795 -764 0 -168 57 -338 151 -450
110 -132 241 -218 511 -336 326 -142 449 -222 497 -322 28 -58 28 -146 0 -204
-93 -192 -510 -230 -869 -78 -47 19 -128 64 -180 99 l-95 64 -3 -286 c-2 -222
1 -287 10 -294 58 -37 278 -98 428 -119 140 -20 498 -18 625 4 410 71 656 275
714 591 15 84 13 268 -4 351 -20 98 -82 218 -152 294 -114 127 -246 208 -578
355 -339 151 -446 249 -433 399 12 144 163 234 408 244 216 9 459 -50 618
-151 l42 -26 0 273 0 273 -42 12 c-123 35 -213 55 -308 68 -116 15 -433 17
-545 3z"/>
<path d="M34755 5929 c-98 -12 -253 -54 -338 -89 -100 -43 -227 -130 -286
-198 -67 -75 -136 -216 -156 -314 -19 -98 -19 -236 0 -330 18 -88 79 -215 136
-283 109 -131 244 -220 509 -336 278 -121 378 -177 449 -254 51 -55 71 -103
71 -170 0 -182 -191 -287 -495 -272 -239 13 -424 81 -652 243 l-23 16 0 -290
0 -290 74 -31 c86 -36 240 -74 371 -93 134 -19 495 -16 620 5 354 61 578 216
678 467 35 89 47 165 47 294 0 142 -19 231 -71 333 -99 197 -251 309 -674 497
-261 116 -365 188 -415 287 -32 62 -25 149 15 206 70 97 184 143 375 150 220
9 475 -55 628 -157 l32 -22 0 274 0 274 -42 12 c-123 35 -213 55 -308 68 -116
15 -432 17 -545 3z"/>
<path d="M16540 4586 l0 -1316 295 0 295 0 0 506 0 507 108 -5 c129 -7 164
-20 238 -90 71 -67 139 -170 389 -585 l200 -333 338 0 c268 0 337 3 330 13
-113 183 -539 841 -578 892 -81 105 -182 200 -255 239 -41 22 -59 37 -50 40
191 67 265 111 375 221 148 147 208 294 207 510 0 213 -54 359 -176 481 -106
106 -240 167 -456 210 -72 14 -176 17 -672 21 l-588 5 0 -1316z m1008 859
c115 -27 187 -77 228 -156 48 -96 49 -251 1 -348 -27 -57 -110 -142 -163 -169
-79 -40 -153 -52 -323 -52 l-161 0 0 370 0 370 178 0 c121 0 197 -5 240 -15z"/>
<path d="M22160 4585 l0 -1315 290 0 290 0 0 535 0 535 555 0 555 0 0 -535 0
-535 295 0 295 0 0 1315 0 1315 -295 0 -295 0 0 -525 0 -525 -555 0 -555 0 0
525 0 525 -290 0 -290 0 0 -1315z"/>
<path d="M25605 5184 c-136 -15 -370 -70 -487 -115 l-78 -30 0 -215 c0 -118 2
-214 5 -214 3 0 27 14 54 31 143 88 342 147 522 156 101 5 125 3 188 -16 125
-38 201 -137 201 -261 l0 -36 -313 -41 c-213 -29 -341 -51 -398 -69 -248 -77
-389 -220 -433 -436 -72 -350 103 -643 417 -703 242 -46 459 14 610 169 27 27
60 67 74 88 14 21 30 38 34 38 5 0 9 -58 9 -130 l0 -130 270 0 270 0 0 618 c0
656 -4 715 -50 851 -78 231 -242 373 -495 426 -78 17 -316 28 -400 19z m403
-1146 c-6 -161 -26 -215 -112 -303 -45 -46 -76 -67 -120 -84 -65 -24 -167 -29
-233 -12 -123 33 -189 162 -152 296 18 65 90 129 174 154 54 16 335 62 434 70
10 1 12 -23 9 -121z"/>
<path d="M27535 5179 c-233 -31 -430 -127 -526 -256 -88 -116 -115 -211 -107
-376 13 -269 155 -405 569 -546 167 -56 234 -88 276 -130 77 -76 36 -186 -86
-232 -71 -27 -235 -36 -341 -20 -97 15 -267 72 -348 117 -34 18 -65 34 -67 34
-3 0 -5 -103 -5 -229 l0 -229 68 -20 c182 -54 374 -77 571 -69 233 10 408 57
544 147 175 115 252 259 251 470 0 287 -133 422 -559 570 -173 60 -230 88
-277 137 -29 30 -33 40 -33 88 0 45 4 58 29 84 48 50 117 74 231 79 125 5 274
-23 390 -74 44 -19 86 -38 93 -41 9 -4 12 43 12 215 l0 220 -67 16 c-194 47
-461 67 -618 45z"/>
<path d="M29295 5183 c-125 -11 -368 -68 -487 -114 l-78 -30 0 -215 c0 -118 2
-214 5 -214 3 0 27 14 54 31 238 146 604 202 772 118 79 -39 139 -143 139
-239 l0 -36 -313 -41 c-337 -45 -429 -67 -550 -131 -183 -95 -282 -258 -294
-486 -19 -365 211 -606 581 -606 209 0 391 86 509 240 27 36 53 67 58 68 5 2
9 -55 9 -127 l0 -131 271 0 270 0 -3 663 c-4 646 -4 664 -26 742 -64 234 -202
388 -411 461 -126 44 -330 63 -506 47z m405 -1125 c0 -164 -26 -236 -119 -329
-69 -69 -142 -99 -240 -100 -92 -1 -145 15 -193 59 -71 64 -94 149 -67 247 17
63 93 129 176 155 52 15 326 59 431 69 9 1 12 -26 12 -101z"/>
<path d="M31755 5175 c-170 -31 -322 -132 -426 -282 l-34 -48 -3 148 -3 147
-289 0 -290 0 0 -935 0 -935 290 0 289 0 3 598 3 597 25 60 c34 84 125 175
203 204 145 53 306 0 368 -121 54 -106 53 -89 56 -735 l4 -603 289 0 290 0 0
558 c0 771 -11 888 -99 1067 -113 230 -370 336 -676 280z"/>
<path d="M36736 5179 c-163 -19 -417 -84 -508 -130 l-38 -19 0 -214 0 -214 78
44 c94 54 204 98 320 126 117 29 322 32 398 5 104 -36 175 -132 178 -242 l1
-49 -303 -42 c-346 -47 -401 -60 -530 -120 -212 -99 -322 -281 -322 -534 0
-274 138 -472 380 -545 83 -25 259 -30 350 -11 151 32 294 126 380 251 17 25
35 45 40 45 6 0 10 -54 10 -130 l0 -130 271 0 270 0 -4 658 c-3 631 -4 660
-24 737 -80 302 -262 461 -583 510 -101 16 -251 17 -364 4z m434 -1109 c0
-152 -29 -241 -108 -330 -128 -145 -395 -151 -488 -10 -32 48 -43 147 -24 205
26 77 103 139 205 165 39 9 334 53 403 59 9 1 12 -23 12 -89z"/>
<path d="M45825 5179 c-185 -37 -323 -126 -434 -281 -19 -27 -38 -48 -43 -48
-4 0 -8 65 -8 145 l0 145 -285 0 -285 0 0 -935 0 -935 285 0 285 0 0 533 c0
292 5 566 10 606 25 192 149 325 315 338 160 13 268 -64 319 -227 19 -61 20
-98 24 -657 l3 -593 285 0 285 0 -4 683 c-4 738 -3 727 -61 880 -65 173 -186
286 -357 333 -67 19 -267 26 -334 13z"/>
<path d="M40510 4205 l0 -935 290 0 290 0 0 935 0 935 -290 0 -290 0 0 -935z"/>
<path d="M43690 4205 l0 -935 290 0 290 0 0 935 0 935 -290 0 -290 0 0 -935z"/>
</g>
</svg>
